<?xml version="1.0" encoding="utf-8"?>
<!-- Generator: Adobe Illustrator 22.1.0, SVG Export Plug-In . SVG Version: 6.00 Build 0)  -->
<svg version="1.1" id="Layer_1" xmlns="http://www.w3.org/2000/svg" xmlns:xlink="http://www.w3.org/1999/xlink" x="0px" y="0px"
	 viewBox="0 0 312.3 48.4" style="enable-background:new 0 0 312.3 48.4;" xml:space="preserve">
<style type="text/css">
	.st0{enable-background:new    ;}
	.st1{fill:#367D75;}
	.st2{fill:#367D75;stroke:#FFFFFF;stroke-width:2;}
	.st3{fill:#06B5CB;stroke:#FFFFFF;stroke-width:2;}
	.st4{fill:#34BEB9;stroke:#FFFFFF;stroke-width:2;}
</style>
<g class="st0">
	<path class="st1" d="M46.7,10.3h4v9.5h0.1c0.5-0.8,1.2-1.4,2-1.8c0.8-0.5,1.8-0.7,2.8-0.7c2.7,0,5.6,1.8,5.6,6.9v9.4h-4v-9
		c0-2.3-0.9-4.1-3.1-4.1c-1.6,0-2.7,1.1-3.2,2.3c-0.1,0.4-0.2,0.8-0.2,1.2v9.6h-4V10.3z"/>
	<path class="st1" d="M80.8,25.6c0,5.9-4.1,8.5-8.2,8.5c-4.5,0-8-3.1-8-8.3c0-5.3,3.5-8.5,8.3-8.5C77.6,17.3,80.8,20.7,80.8,25.6z
		 M68.7,25.7c0,3.1,1.5,5.4,4,5.4c2.3,0,3.9-2.2,3.9-5.5c0-2.5-1.1-5.4-3.9-5.4C69.8,20.2,68.7,23,68.7,25.7z"/>
	<path class="st1" d="M84.1,22.5c0-1.8-0.1-3.4-0.1-4.8h3.5l0.2,2.4h0.1c0.8-1.3,2.2-2.7,4.9-2.7c2.1,0,3.8,1.2,4.4,3h0.1
		c0.6-0.9,1.2-1.5,1.9-2c0.9-0.6,1.9-1,3.3-1c2.6,0,5.3,1.8,5.3,6.9v9.4h-4v-8.9c0-2.7-0.9-4.2-2.9-4.2c-1.4,0-2.4,1-2.8,2.1
		c-0.1,0.4-0.2,0.9-0.2,1.4v9.6h-4v-9.3c0-2.2-0.9-3.8-2.8-3.8c-1.5,0-2.5,1.2-2.9,2.3c-0.1,0.4-0.2,0.9-0.2,1.4v9.5h-4L84.1,22.5
		L84.1,22.5z"/>
	<path class="st1" d="M114.9,26.8c0.1,2.9,2.3,4.1,4.9,4.1c1.9,0,3.2-0.3,4.4-0.7l0.6,2.8c-1.4,0.6-3.3,1-5.6,1
		c-5.2,0-8.3-3.2-8.3-8.1c0-4.4,2.7-8.6,7.8-8.6c5.2,0,6.9,4.3,6.9,7.8c0,0.8-0.1,1.4-0.1,1.7H114.9z M121.9,24
		c0-1.5-0.6-3.9-3.3-3.9c-2.5,0-3.6,2.3-3.7,3.9H121.9z"/>
	<path class="st1" d="M140.6,33.2c-0.8,0.4-2.4,0.9-4.6,0.9c-4.8,0-7.9-3.3-7.9-8.1c0-4.9,3.4-8.5,8.6-8.5c1.7,0,3.2,0.4,4,0.9
		l-0.7,2.2c-0.7-0.4-1.8-0.8-3.4-0.8c-3.7,0-5.6,2.7-5.6,6c0,3.7,2.4,6,5.5,6c1.6,0,2.7-0.4,3.6-0.8L140.6,33.2z"/>
	<path class="st1" d="M155.2,29.9c0,1.4,0.1,2.7,0.2,3.8h-2.6l-0.2-2h-0.1c-0.9,1.3-2.6,2.4-4.9,2.4c-3.2,0-4.9-2.3-4.9-4.6
		c0-3.9,3.4-6,9.6-5.9v-0.3c0-1.3-0.4-3.7-3.6-3.7c-1.5,0-3.1,0.4-4.2,1.2l-0.7-1.9c1.3-0.8,3.3-1.4,5.3-1.4c4.9,0,6.1,3.3,6.1,6.5
		L155.2,29.9L155.2,29.9z M152.4,25.6c-3.2-0.1-6.8,0.5-6.8,3.6c0,1.9,1.3,2.8,2.7,2.8c2.1,0,3.5-1.3,3.9-2.7
		c0.1-0.3,0.1-0.7,0.1-0.9L152.4,25.6L152.4,25.6z"/>
	<path class="st1" d="M159.9,22.8c0-1.9,0-3.5-0.1-5h2.5l0.1,3.2h0.1c0.7-2.1,2.5-3.5,4.4-3.5c0.3,0,0.5,0,0.8,0.1v2.7
		c-0.3-0.1-0.6-0.1-1-0.1c-2,0-3.5,1.5-3.9,3.7c-0.1,0.4-0.1,0.9-0.1,1.4v8.5h-2.9V22.8z"/>
	<path class="st1" d="M171.9,26.3c0.1,3.9,2.5,5.5,5.5,5.5c2.1,0,3.4-0.4,4.4-0.8l0.5,2.1c-1,0.5-2.8,1-5.3,1
		c-4.9,0-7.8-3.3-7.8-8.1c0-4.8,2.8-8.6,7.5-8.6c5.2,0,6.6,4.5,6.6,7.5c0,0.6,0,1-0.1,1.4L171.9,26.3L171.9,26.3z M180.4,24.2
		c0-1.8-0.8-4.7-4-4.7c-3,0-4.2,2.7-4.4,4.7H180.4z"/>
	<path class="st1" d="M185.7,32c0-1.2,0.8-2.1,2-2.1c1.2,0,1.9,0.9,1.9,2.1c0,1.2-0.8,2.1-2,2.1C186.5,34.1,185.7,33.2,185.7,32z"/>
	<path class="st1" d="M204.6,33.2c-0.8,0.4-2.4,0.9-4.6,0.9c-4.8,0-7.9-3.3-7.9-8.1c0-4.9,3.4-8.5,8.6-8.5c1.7,0,3.2,0.4,4,0.9
		l-0.7,2.2c-0.7-0.4-1.8-0.8-3.4-0.8c-3.7,0-5.6,2.7-5.6,6c0,3.7,2.4,6,5.5,6c1.6,0,2.7-0.4,3.6-0.8L204.6,33.2z"/>
	<path class="st1" d="M222.2,25.6c0,5.9-4.1,8.5-7.9,8.5c-4.3,0-7.6-3.2-7.6-8.2c0-5.3,3.5-8.4,7.9-8.4
		C219.1,17.5,222.2,20.8,222.2,25.6z M209.6,25.8c0,3.5,2,6.1,4.8,6.1c2.8,0,4.8-2.6,4.8-6.2c0-2.7-1.4-6.1-4.8-6.1
		C211.1,19.6,209.6,22.8,209.6,25.8z"/>
	<path class="st1" d="M224.4,32c0-1.2,0.8-2.1,2-2.1s1.9,0.9,1.9,2.1c0,1.2-0.8,2.1-2,2.1C225.2,34.1,224.4,33.2,224.4,32z"/>
	<path class="st1" d="M245.2,29.3c0,1.7,0,3.1,0.1,4.4h-2.6l-0.2-2.6h-0.1c-0.7,1.3-2.4,3-5.3,3c-2.5,0-5.5-1.4-5.5-7v-9.3h2.9v8.8
		c0,3,1,5.1,3.6,5.1c1.9,0,3.3-1.4,3.8-2.7c0.2-0.4,0.3-0.9,0.3-1.5v-9.7h2.9L245.2,29.3L245.2,29.3z"/>
	<path class="st1" d="M252.9,25.1L252.9,25.1c0.5-0.6,1-1.3,1.4-1.8l4.7-5.5h3.5l-6.1,6.6l7,9.4h-3.6l-5.5-7.6l-1.5,1.6v6H250V10.3
		h2.9L252.9,25.1L252.9,25.1z"/>
</g>
<path class="st2" d="M22.6,7.8c3.1,5.6,1.1,12.6-4.4,15.7c-5.5,3.1-12.6,1.1-15.7-4.4C-0.6,13.6,1.3,6.5,6.9,3.4
	C12.4,0.3,19.5,2.3,22.6,7.8z"/>
<path class="st3" d="M27.7,10.3c6.7,0,12,5.4,12,12c0,6.7-5.4,12-12,12c-6.6,0-12-5.4-12-12C15.7,15.7,21.1,10.3,27.7,10.3z"/>
<path class="st4" d="M22.8,23.3c3.1,5.6,1.1,12.6-4.4,15.7c-5.5,3.1-12.6,1.1-15.7-4.4C-0.4,29,1.6,22,7.2,18.9
	C12.7,15.8,19.7,17.7,22.8,23.3z"/>
</svg>
